<svg xmlns="http://www.w3.org/2000/svg" viewBox="0 0 504.12 255.25"><defs><style>.cls-1{fill:#141414;}</style></defs><title>alfombra</title><g id="Capa_2" data-name="Capa 2"><g id="manos"><g id="alfombra"><path class="cls-1" d="M145.78,70.94a2.5,2.5,0,0,0-.82-.1,6.71,6.71,0,0,0-.78.15c-.49.11-1,.25-1.44.4a23.23,23.23,0,0,0-2.8,1.1,13.17,13.17,0,0,0-4.75,3.37A.71.71,0,0,0,136,77c.81-.42,1.56-.93,2.35-1.38s1.62-.86,2.45-1.23a20.15,20.15,0,0,1,2.4-.86c.45-.13.9-.24,1.36-.34a4.06,4.06,0,0,0,1.4-.51A1,1,0,0,0,145.78,70.94Z"/><path class="cls-1" d="M114.55,93.77a1.09,1.09,0,0,0-.65-1.58,3.13,3.13,0,0,0-2.13.59c-.5.29-1,.59-1.47.92a18.28,18.28,0,0,0-5.12,5.1,11.66,11.66,0,0,0-.84,1.51q-.2.43-.39.9a.9.9,0,0,0-.09.46.53.53,0,0,0,.07.2s0,0,0,.09c0,.37.42.46.66.28-.1,0-.09,0,0,0a.46.46,0,0,0,.25-.08,1.2,1.2,0,0,0,.32-.35c.15-.2.3-.4.46-.59q.51-.63,1.05-1.26A21.54,21.54,0,0,1,109,97.59a20.23,20.23,0,0,1,2.54-1.9c.45-.28.92-.54,1.39-.78A3.48,3.48,0,0,0,114.55,93.77Z"/><path class="cls-1" d="M89.22,225.63a15.91,15.91,0,0,1,2.59,3,13.45,13.45,0,0,1,1.72,3.43A17.91,17.91,0,0,1,94,234c.13.71.43,1.36.62,2s1.61.93,1.77,0a6.8,6.8,0,0,0,.11-2.46,10.93,10.93,0,0,0-.67-2.15,15.6,15.6,0,0,0-2.39-4,13.33,13.33,0,0,0-3.37-2.85A13,13,0,0,0,86,223.15c-.08,0-.14.1-.06.14A14.24,14.24,0,0,1,89.22,225.63Z"/><path class="cls-1" d="M42.85,216.76a22.57,22.57,0,0,0-3.61,6.86,8.76,8.76,0,0,0,.81,7,.9.9,0,0,0,1.55-.91c-1.82-4.29-.17-8.81,1.45-12.88C43.1,216.73,42.92,216.67,42.85,216.76Z"/><path class="cls-1" d="M93.67,71.09a18.05,18.05,0,0,0-1.13-1.62c-.39-.48-.8-1-1.24-1.4a6.82,6.82,0,0,0-1.54-1.29.72.72,0,0,0-.92.19.73.73,0,0,0,.06.93,16.5,16.5,0,0,0,1.25,1.26,17.15,17.15,0,0,1,1.21,1.35c.71.87,1.37,1.88,2,2.84a.61.61,0,0,0,.76.25.6.6,0,0,0,.35-.72A9.13,9.13,0,0,0,93.67,71.09Z"/><path class="cls-1" d="M89,76.81c-.12-.19-.26-.38-.4-.56a8.65,8.65,0,0,0-1-1.17,12.38,12.38,0,0,0-1.19-1A5.81,5.81,0,0,0,85,73.39c-.43-.16-.84.51-.46.8.74.6,1.54,1.11,2.24,1.72.35.31.71.61,1,.92.18.17.34.35.52.51a1,1,0,0,0,.32.17,1.87,1.87,0,0,1,.31.17.12.12,0,0,0,.17-.14c0-.11-.06-.23-.07-.35A.86.86,0,0,0,89,76.81Z"/><path class="cls-1" d="M87.36,81.62c0-.57-.63-.91-1.07-1.19s-.9-.58-1.37-.85-.92-.54-1.39-.8a6,6,0,0,0-.68-.32c-.37-.16-.69-.33-1.08-.1a.63.63,0,0,0-.32.55c0,.45.29.63.63.87a6.81,6.81,0,0,0,.63.41l1.42.75c.47.25,1,.49,1.44.72s1.09.56,1.6.3L87,82a3.69,3.69,0,0,0,.47,0,.14.14,0,0,0,.12-.21,2.65,2.65,0,0,0-.24-.4A1.6,1.6,0,0,1,87.36,81.62Z"/><path class="cls-1" d="M126.19,50.91s0-.09,0-.14l0,.06,0-.1a1.25,1.25,0,0,0-.13-.73c-.17-.4-.31-.82-.44-1.23s-.24-.86-.34-1.29q-.08-.33-.12-.66a5.12,5.12,0,0,0-.19-.67c-.16-.5-1-.58-1.09,0a2.89,2.89,0,0,0-.09.77,7.5,7.5,0,0,0,.11.81,6.68,6.68,0,0,0,.45,1.44,6.34,6.34,0,0,0,.71,1.27,1.58,1.58,0,0,0,.56.53.59.59,0,0,0,.19.05c-.07,0,0,0,0,0a1.27,1.27,0,0,1,.34.27c.07.08.2,0,.15-.11A.8.8,0,0,1,126.19,50.91Z"/><path class="cls-1" d="M130.43,46.65a9.63,9.63,0,0,1,0-1.52,4,4,0,0,0,0-1.65.56.56,0,0,0-.92-.25A2.49,2.49,0,0,0,129,45a7.8,7.8,0,0,0,.12,1.81,6.37,6.37,0,0,0,.5,1.66,4.45,4.45,0,0,0,1.08,1.36.19.19,0,0,0,.31-.19c-.12-.52-.2-1-.3-1.58A10,10,0,0,1,130.43,46.65Z"/><path class="cls-1" d="M135.4,49.05a.21.21,0,0,0,.29-.12,6.92,6.92,0,0,0-.06-1.76,9.43,9.43,0,0,1,0-1.84,19.05,19.05,0,0,1,1-3.49.78.78,0,0,0-1.29-.76,3.89,3.89,0,0,0-.63.89,6,6,0,0,0-.39,1.12,8,8,0,0,0-.25,2.18,7.24,7.24,0,0,0,.29,2.07A3,3,0,0,0,135.4,49.05Z"/><path class="cls-1" d="M119.35,104.44a2.11,2.11,0,0,0-.56-.88l-.55-.42-.65-.28a2.09,2.09,0,0,0-1.08,0,1.94,1.94,0,0,0-1,.32l-.13.07a2.93,2.93,0,0,0-1,1,2.81,2.81,0,0,0-.37,1.39c0,.24.06.49.1.73a2.77,2.77,0,0,0,.7,1.22,2.27,2.27,0,0,0,.89.57,2,2,0,0,0,1.06.23,2.71,2.71,0,0,0,1.39-.37,2.93,2.93,0,0,0,1-1s0-.08.07-.13c.09-.21.18-.43.28-.65a2,2,0,0,0,0-1.08A1.36,1.36,0,0,0,119.35,104.44Z"/><path class="cls-1" d="M116,213.89c.55.55,1.13,1.06,1.68,1.61a29,29,0,0,1,3.06,3.49,28.31,28.31,0,0,1,2.41,3.89,35.2,35.2,0,0,0,2.07,4.28.8.8,0,0,0,1.48-.4,10.09,10.09,0,0,0-1.45-5,22.6,22.6,0,0,0-2.81-4.24,20.63,20.63,0,0,0-3.67-3.44,13.55,13.55,0,0,0-2.09-1.27c-.79-.36-1.59-.54-2.4-.82-.1,0-.14.11-.07.17A20.66,20.66,0,0,1,116,213.89Z"/><path class="cls-1" d="M185.4,213.51a1.17,1.17,0,0,0,1.17-.39c.59.64,1.16,1.3,1.76,1.93a1.19,1.19,0,0,0,2-.83c0-.62-.1-1.22-.13-1.83s0-1.22-.07-1.83c-.08-1.22-.19-2.44-.34-3.66a.7.7,0,0,0-.67-.67.68.68,0,0,0-.67.67c0,1.2,0,2.39-.06,3.59,0,.33,0,.66-.06,1-.42-.47-.83-1-1.26-1.43a1.23,1.23,0,0,0-2,.54,8.65,8.65,0,0,0-.49,1.81A1.14,1.14,0,0,0,185.4,213.51Z"/><path class="cls-1" d="M59.84,205.45A2.71,2.71,0,0,0,58.76,204a.08.08,0,0,0-.1,0,2,2,0,0,0-.28,1.9,11.91,11.91,0,0,0,.77,2,10.8,10.8,0,0,0,2.83,3.4,41.45,41.45,0,0,0,3.48,2.41c.57.39,1.15.78,1.69,1.22.28.23.54.5.84.71s.63.3.92.5.78-.24.6-.6A4.25,4.25,0,0,0,68.38,214c-.51-.43-1.06-.83-1.61-1.21-1.14-.77-2.34-1.45-3.4-2.31a11.3,11.3,0,0,1-2.64-3.12A10.68,10.68,0,0,1,59.84,205.45Z"/><path class="cls-1" d="M67.72,219.82a.41.41,0,0,0-.46.59,14.84,14.84,0,0,0,1.47,1.9c.56.7,1.1,1.42,1.68,2.12a9.84,9.84,0,0,0,4.34,3c1.71.62,3.52.86,5.23,1.45a8.9,8.9,0,0,1,2.38,1.16c.64.45.94,1.47,1.72,1.65a.56.56,0,0,0,.67-.39c.26-.8-.56-1.45-1.09-1.95a9.83,9.83,0,0,0-1.92-1.42,25.71,25.71,0,0,0-5.33-1.79,9.61,9.61,0,0,1-4.86-2.87C70.48,222.08,69.4,220.17,67.72,219.82Z"/><path class="cls-1" d="M22,212c-.25.11-.5.27-.75.35a4.68,4.68,0,0,0-.79.36,4.43,4.43,0,0,0-1.4,1.52,10.33,10.33,0,0,0-.8,1.76A4.41,4.41,0,0,0,18,218a1,1,0,0,0,.78.67.93.93,0,0,0,.92-.45,11,11,0,0,0,.63-1.69l.14-.39,0-.06.07-.15c.11-.25.24-.5.37-.74a11.82,11.82,0,0,0,.76-1.56c.09-.24.16-.47.23-.71a2.86,2.86,0,0,1,.39-.68C22.42,212.05,22.16,211.87,22,212Z"/><path class="cls-1" d="M30,214.89c-.87,0-1.38,1-1.69,1.71a8.26,8.26,0,0,0-.67,2.13,8.85,8.85,0,0,0-.13,2.18,3.31,3.31,0,0,0,.58,2l.1.2a.77.77,0,0,0,.88.36.81.81,0,0,0,.57-.75v0a4.45,4.45,0,0,0,.25-1.83l0-.25c0-.07,0-.17,0,0,0-.23.07-.46.1-.7,0-.06,0-.13,0-.2s0,0,0-.07c0-.19.07-.37.1-.55.14-.64.3-1.29.5-1.92a7.7,7.7,0,0,0,.26-.94A1,1,0,0,0,30,214.89Z"/><path class="cls-1" d="M55,225.2a3.21,3.21,0,0,0-.62-1c-.23-.24-.79-.52-1.07-.17-.44.53-.1,1.25.12,1.81a10.15,10.15,0,0,1,.52,1.81,11.79,11.79,0,0,1,.18,1.7c0,.3,0,.61,0,.91a1.43,1.43,0,0,0,.15,1.05.63.63,0,0,0,.86.22,1.28,1.28,0,0,0,.55-1,10.55,10.55,0,0,0,.12-1.13,8.72,8.72,0,0,0-.16-2.22A10.22,10.22,0,0,0,55,225.2Z"/><path class="cls-1" d="M146.29,88.61c3.55,0,3.55-5.51,0-5.51s-3.55,5.51,0,5.51Z"/><path class="cls-1" d="M503,251.84a83.29,83.29,0,0,0-9.08-.19c-2.87,0-5.74,0-8.61-.12a132.27,132.27,0,0,1-14.47-1.17c.84-.17,1.65-.36,2.41-.56a59.07,59.07,0,0,0,14-5.51.71.71,0,0,0-.55-1.28c-4.58,1.36-8.92,3.37-13.59,4.47a48.12,48.12,0,0,1-7,1.09c-1.22.11-2.46.14-3.7.19a104.55,104.55,0,0,1-12.34-3.9,26.24,26.24,0,0,0,5.94-.18,48.18,48.18,0,0,0,12.17-3.44c1-.44.69-2.09-.48-1.77-3.75,1-7.46,2.34-11.3,3a29.89,29.89,0,0,1-5.82.47,27,27,0,0,1-3-.26,4.44,4.44,0,0,0-2.29,0,.39.39,0,0,0-.17.14c-2.72-1.15-5.42-2.38-8.09-3.64l-5.83-2.81a64.66,64.66,0,0,0,8.43.15,111.12,111.12,0,0,0,14.24-1.14c1-.15.78-1.86-.24-1.8-4.66.31-9.33.54-14,.58-2.29,0-4.59,0-6.88,0a27,27,0,0,0-5.46.32c-3.16-1.53-6.32-3-9.51-4.47l.41,0a28.65,28.65,0,0,0,11.2-1.69,1.07,1.07,0,0,0-.56-2.06,44.44,44.44,0,0,1-10.64,1.28,50.87,50.87,0,0,1-5.23-.37c-.89-.09-2-.45-3.07-.51l-1.43-.56c-3-1.13-6-2.11-9.12-3a57.85,57.85,0,0,0,12.74-2.16c.88-.27.76-1.7-.22-1.66-4.22.17-8.35,1.07-12.54,1.48-2.05.21-4.11.38-6.17.43-.75,0-1.54,0-2.33,0-5.05-.94-10.14-1.66-15.1-3-2.38-.65-4.71-1.43-7-2.3l2.34,0a79.17,79.17,0,0,0,15-1.28c.89-.18.68-1.58-.21-1.57-4.68.07-9.35.46-14,.5-2.14,0-4.3.07-6.43-.08a18.82,18.82,0,0,1-2.89-.42,8.79,8.79,0,0,0-1.51-.27l-3.76-1.58L353,209.48h.05a49.52,49.52,0,0,0,6.33-.15,38.72,38.72,0,0,0,12.22-3c1-.44.27-1.94-.72-1.72a83.44,83.44,0,0,1-11.95,2,50.19,50.19,0,0,1-5.88.14c-2.09-.07-4.17-.47-6.26-.5a1.11,1.11,0,0,0-.89.4c-1-.38-1.93-.76-2.91-1.1-1.72-.62-3.47-1-5.21-1.49a.19.19,0,0,0-.23.14c-4.46-.73-9.15-.63-13.64-.79q-7.29-.25-14.58-.27c-9.13,0-11.52,0-20.62.58-4.51-.26-7.13-.52-7.71-.59-10.68-1.31-21.44-2-32.18-2.36s-21.52-.71-32.29-.76c-3,0-5.94,0-8.9,0s-6-.14-8.91.53c-1.23-1.74-2.45-3.5-3.63-5.27a67.65,67.65,0,0,0,3.7-12.49A103,103,0,0,0,201,167.87c.36-5.3.36-10.58.39-15.88,0-2.75.21-5.51.08-8.26s-.31-5.43-.55-8.14c-.45-5-.7-10.1-1.45-15.09a103,103,0,0,0-2.71-13A154.76,154.76,0,0,0,190.83,91c-2.43-5.89-5.1-11.66-8.09-17.29A189.27,189.27,0,0,0,161.2,41c-8.33-10-17.69-19.15-28.84-26a128.53,128.53,0,0,0-17.64-8.83A79,79,0,0,0,94.59,1.13C81.43-.59,67.81-.54,54.87,2.68A63.66,63.66,0,0,0,37.8,9.48,64.23,64.23,0,0,0,24.38,20.37,97.63,97.63,0,0,0,4.26,52.18a46.5,46.5,0,0,0-1.82,6.38c-.21.74-.59,2.84-.91,4-.47,2.29-.6,4.23-.88,6.55A88.46,88.46,0,0,0,1,92.86a114,114,0,0,0,2.75,12.38,104.93,104.93,0,0,1,2.5,12.66,174.56,174.56,0,0,1,.93,26c-.08,4.36,0,8.86,1.63,13,1.36,3.32,3.67,6.42,7.07,7.76a58.46,58.46,0,0,1,3.31,9.06,32.7,32.7,0,0,1,1.47,9.87c-.11,6.17-2.54,12.09-2.27,18.27a1.8,1.8,0,0,0-1.6.51,1.26,1.26,0,0,0-.25.31,7.11,7.11,0,0,0-2.27,2.68,52.46,52.46,0,0,0-2.55,5.22c-1.38,3.18-3.7,7.38-2,10.83a8.6,8.6,0,0,0,3.35,3.23c1.61,1,3.27,1.94,4.91,2.88a97.12,97.12,0,0,0,10.14,5.23A46.91,46.91,0,0,0,39,236c4.09.68,8.23,1.07,12.35,1.61q12.57,1.65,25.17,3.08c8.87,1,18,2.23,26.65-.53a1.2,1.2,0,0,0,.75-1.62l0,0a13.83,13.83,0,0,0,.52-2.28,20.65,20.65,0,0,0,6.07.78c2.07.12,4.14.17,6.22.24a97.55,97.55,0,0,0,12.68,0,1.62,1.62,0,0,0,1.3-.76,1.06,1.06,0,0,0,.56-.26c3.85-3.47,5.11-9.68,4.4-14.63-.8-5.67-5.63-9.83-10.43-12.41a30.61,30.61,0,0,0-9.07-2.84c-3.19-.58-6.63-1-9.48-2.69s-4.55-4.63-6.69-6.89a42.94,42.94,0,0,0-7.43-6.63c-3.09-2-6.31-1.69-9.29.36l-.12.09a.35.35,0,0,1,0-.11c.25-2.73.48-6.41,1-9.11a61.2,61.2,0,0,1,2.17-7.7c1.71-5,3.67-9.92,5.81-14.75,4-9.09,9.23-17.74,16.5-24.61a47.37,47.37,0,0,1,6-4.9c1.06-.72,2.14-1.41,3.24-2.05a18.23,18.23,0,0,0,3.31-2c.8-.73-.08-1.76-.94-1.63-2.22.32-4.51,2-6.33,3.27a52.69,52.69,0,0,0-5.64,4.44c-.55.5-1.07,1-1.6,1.55a.94.94,0,0,0-.22-.79c-.88-1-2.85-.67-4.08-.71l-5.23-.14c-3.49-.07-7-.08-10.47-.09s-6.81.07-10.21.17A62.6,62.6,0,0,0,69,132a26.55,26.55,0,0,0,1.08-3.7,13.85,13.85,0,0,0,.3-4.4c0-.29-.08-.59-.13-.88a9.18,9.18,0,0,0,3.15-.36,30,30,0,0,0,9-4.73,13.92,13.92,0,0,0,4.21-5c1.76,1.36,4.27,2.14,6,2.86a53.3,53.3,0,0,0,11,3.19,35.08,35.08,0,0,0,11.7,0c3.78-.64,7.49-2.61,11.36-2.5a10.67,10.67,0,0,1,5,1.4c1.48.87,2.7,2.11,4.21,3a6.26,6.26,0,0,0,8.64-1.94c2-2.88,2.43-6.68,2.59-10.11s.29-6.86,1.83-10.08c1.32-2.77,3.73-4.44,5.63-6.76a21.83,21.83,0,0,0,2.77-4.16l.13-.28a3.76,3.76,0,0,1,.71.38c1.09.76,2.06,2.38,2.92,3.4,1.58,1.89,3.26,3.64,4.71,5.65a89,89,0,0,1,7.76,12.83,106.54,106.54,0,0,1,9.56,28.42c.5,2.76,1,5.55,1.31,8.34a73,73,0,0,0,1,7.54c-2.43-.28-5,2-6.38,3.68a16.75,16.75,0,0,0-3.71,8.78,23.26,23.26,0,0,0,1.51,10.79,18.51,18.51,0,0,0,2.62,5.08l0,0a13.09,13.09,0,0,0-4.13-1.15c-1.43-.22-2.85-.75-4.32-.52-.28,0-.31.48-.08.6a21.76,21.76,0,0,0,3.62,1.06,19.65,19.65,0,0,1,3.52,1.84,10.27,10.27,0,0,1,3.43,3c-.69,1.49-1.41,3-2.15,4.45-.12.24-.25.47-.37.7a12,12,0,0,0-1.88-1.6,19.94,19.94,0,0,0-3.36-1.69,24.58,24.58,0,0,0-3.55-1.17,7.82,7.82,0,0,0-3.61-.4.27.27,0,0,0-.07.49,6.75,6.75,0,0,0,1.53.46c.56.14,1.12.31,1.66.5a14.44,14.44,0,0,1,3.17,1.64,16.22,16.22,0,0,1,2.52,2.24c.72.74,1.46,1.47,2.11,2.28-1.14,2-2.37,4-3.69,6a10.72,10.72,0,0,0-3.77-3.33c-1.09-.58-2.25-1-3.37-1.56a10.34,10.34,0,0,0-3.55-1.29.39.39,0,0,0-.28.66,13,13,0,0,0,3,1.7,14.39,14.39,0,0,1,2.78,1.93c.83.73,1.65,1.51,2.4,2.31a9.45,9.45,0,0,1,1.26,1.68,52.34,52.34,0,0,1-8.16,8.73,13.52,13.52,0,0,0-.81-1.77,9.83,9.83,0,0,0-2-2.69,9.36,9.36,0,0,0-1.35-1c-.44-.28-.85-.59-1.28-.88a5.4,5.4,0,0,0-1.41-.73c-.51-.16-1-.29-1.54-.44a.35.35,0,0,0-.26.63,6.65,6.65,0,0,1,1.18.87c.36.32.76.58,1.14.88a8.25,8.25,0,0,1,1.79,2.07c.54.8,1.11,1.47,1.61,2.36a10.92,10.92,0,0,1,1,2.26,43.45,43.45,0,0,1-5.88,3.76,38.35,38.35,0,0,1-5.13,2.25,13,13,0,0,0-1.83-7.14,12.07,12.07,0,0,0-2.14-2.92,11.1,11.1,0,0,0-3.1-2,.4.4,0,0,0-.48.62,17.52,17.52,0,0,1,1.89,2.57,19.92,19.92,0,0,1,1.57,2.77,13.54,13.54,0,0,1,.81,3,18.12,18.12,0,0,1,.23,3.2,1.66,1.66,0,0,0,0,.32,30.1,30.1,0,0,0-3.56.44.89.89,0,0,0-.54,1.44.87.87,0,0,0,.68,1.38,13.39,13.39,0,0,0,5-.47c2.86.15,5.72.22,8.56.45,4.4.35,8.78.83,13.16,1.35s8.77,1.07,13.17,1.47c2.24.2,4.48.38,6.72.5,1.12.06,2.24.05,3.36,0a12.23,12.23,0,0,0,2.84-.17c.46.24.91.48,1.38.71a131.67,131.67,0,0,0,16.62,6.63c12.64,4.3,25.36,8.38,38.19,12.09,9.51,3.37,26.94,6.83,27.15,6.69,1.72.19,3.45.31,5.16.38,7.45.34,14.92,0,22.37-.06,4.19-.05,8.38.11,12.57.17s8.47,0,12.7,0q25.68.11,51.34.6c8.56.17,17.15.25,25.71.53s16.92.67,25.38,1c17.38.61,34.75-.66,52.13-.48a44.85,44.85,0,0,0,6.14-.26,61.19,61.19,0,0,0,8.68-.25A1.13,1.13,0,0,0,503,251.84ZM101.76,237.9a1.15,1.15,0,0,0,0,.18c-6.68,1.71-14,.86-20.75,0-7.73-.94-15.47-1.74-23.2-2.66-7.4-.88-15-1.49-22.2-3.39-6.75-1.76-12.9-5.14-18.9-8.63-1.42-.82-3.34-1.6-4.28-3-1.12-1.7-.08-4,.63-5.64.78-1.84,1.69-3.64,2.64-5.41a21.44,21.44,0,0,1,2-3.56,15,15,0,0,0,2.89,2.12c.78.4,1.56.7,2.32,1.13s1.25.69,1.88,1a23.33,23.33,0,0,0,9.67,2.09,29.79,29.79,0,0,1,5.16.44,36.46,36.46,0,0,1,4.77,1.57c2.9,1.05,6.08,2,8.63-.22a.54.54,0,0,0,.16-.59,1,1,0,0,0,.9-.46c1.34-2.08.87-4.86-.34-6.88-1.36-2.27-3.65-3.72-5.74-5.25a6.36,6.36,0,0,0,.81-.47l1.88-1a32.14,32.14,0,0,1,3.89-1.72,25.56,25.56,0,0,1,4-1.05c.67-.13,1.43-.18,2.16-.31,1.36,1.61,3.07,2.94,4.46,4.53a45.82,45.82,0,0,1,3.93,5.18,25.83,25.83,0,0,0,3.18,4.42,9.66,9.66,0,0,0,5.11,2.49l.55.09c.54.24,1,.59,1.59.82.75.32,1.51.56,2.27.83a38.48,38.48,0,0,1,4.61,2,31.48,31.48,0,0,1,4.11,2.53c.65.47,1.31.93,2,1.42.29.22.57.48.88.7s.81.42,1.19.69a.4.4,0,0,0,.54-.54c-.29-.45-.55-.85-.84-1.24a26.7,26.7,0,0,1,4.1,4.27A16.72,16.72,0,0,1,101.76,237.9ZM85.64,196.55a11.49,11.49,0,0,1,.92,1.86c.26.69.45,1.41.77,2.08.68,1.45,2.27,1.83,3.35,2.88a12.93,12.93,0,0,1,2.3,3.69c.34.65,1.54.39,1.45-.39a7.56,7.56,0,0,0-2.24-4.09A16,16,0,0,0,90.27,201a4,4,0,0,1-1.44-1.84,12.84,12.84,0,0,0-2.11-4,6,6,0,0,0-1.66-1.36,2.89,2.89,0,0,0-1.11-.34l.07-.06a16.23,16.23,0,0,1,3.35-2.1,4.33,4.33,0,0,1,4.18.76,45.36,45.36,0,0,1,6.9,6.39c2,2.1,3.6,4.65,5.87,6.42,2.8,2.18,6.26,2.95,9.74,3.61-.2.35-.4.71-.61,1.1a6.14,6.14,0,0,1-1.73,2.15c-1,.66-2.15.36-3.25.63a3.56,3.56,0,0,0-2.14,1.68c-.4.63-.67,1.6-1.29,2s-1.14.08-1.69-.06a10.5,10.5,0,0,0-1.49-.23,5.77,5.77,0,0,0-5.2,2.15c-.2.28.23.55.46.35a6.88,6.88,0,0,1,3.19-1.67,4.66,4.66,0,0,1,2.07,0,16.18,16.18,0,0,1,1.64.75c1.44.58,2.25-.18,3-1.15a11.57,11.57,0,0,0,1.44,2.2,20.33,20.33,0,0,1,1.66,2.81,23.59,23.59,0,0,1,1.49,6.09c.11.75,1.21.63,1.41,0a9.84,9.84,0,0,0-.9-7.16,10.62,10.62,0,0,0-2-3,4.87,4.87,0,0,0-2.68-1.67c.16-.25.32-.49.49-.72.72-1,1.92-.72,3-.9a4.69,4.69,0,0,0,2.58-1.39,6.49,6.49,0,0,0,1.75-3.87,46.65,46.65,0,0,1,5.4,1.24c4.72,1.49,10.15,5.12,12.09,9.87s.47,10.72-2.55,14.59a1.93,1.93,0,0,0-.69-.22,116.52,116.52,0,0,0-12.68-.34c-2.08,0-4.15,0-6.22,0a22,22,0,0,0-5.9.42c0-7-5.14-13.44-10.59-17.59a34.53,34.53,0,0,0-7.33-4.42,1.18,1.18,0,0,0,.1-.38,5.28,5.28,0,0,0-.46-2.16,21.56,21.56,0,0,0-.9-2.17,22.33,22.33,0,0,0-2.3-3.72,38.88,38.88,0,0,0-3-3.46c-.55-.57-1.12-1.12-1.7-1.66l-.25-.24c.66-.48,1.2-1.13,1.85-1.71,1-.94,2.09-1.86,3.17-2.73A12,12,0,0,1,85.64,196.55Zm3.12-62.18a1.76,1.76,0,0,0,.3-.66l8,.13,5.23.11c1,0,2.55.34,3.62-.06A64.38,64.38,0,0,0,99,142.4c-6.12,8.9-10.38,19-14,29.17-2,5.56-4.38,14.16-3.3,20.15v0c-1,.74-1.94,1.51-2.83,2.33-.66.62-1.29,1.28-1.9,1.95a3.72,3.72,0,0,0-.86,1.32.86.86,0,0,0-.57,1,3.6,3.6,0,0,0,1.17,1.74l1.55,1.64A36.07,36.07,0,0,1,81,205a22.25,22.25,0,0,1,2.1,3.42,14.55,14.55,0,0,1,.77,1.88c.1.3.17.61.25.93a14.62,14.62,0,0,0-1.56-.36c-2.2-.41-4.6.13-6.74-.51s-3.35-2.68-4.46-4.4A46,46,0,0,0,67,200.13a29.16,29.16,0,0,0-4.65-4.5.18.18,0,0,0,0-.28,2.64,2.64,0,0,0-1-.56,62.06,62.06,0,0,1,1.86-12.87,127.53,127.53,0,0,1,4.21-12.36c1.65-4,3.63-7.87,5.63-11.73a103.86,103.86,0,0,1,6.61-11.37c.72-1,1.63-1.89,2.38-2.89s1.48-2,2.24-3C85.89,138.59,87.27,136.43,88.76,134.37Zm-12.37-.81,8.5.1c-1.06,1.44-2.11,2.89-3.08,4.39a58.76,58.76,0,0,0-3.17,5.9c-2,4.06-4.54,7.88-6.74,11.84-4.24,7.66-8.09,16-9.94,24.57a95.37,95.37,0,0,0-2.42,14.22c-.27,0-.54,0-.8,0a18.75,18.75,0,0,0-4.32.89,34.78,34.78,0,0,0-4.18,1.63,22.43,22.43,0,0,0-4.07,2.18c-1.3,1-.6,2.34.47,3.13s2.3,1.58,3.35,2.5c1.94,1.7,3.61,4.34,2.28,6.92a.93.93,0,0,0,0,1,26.87,26.87,0,0,1-8.23-1.9,27.33,27.33,0,0,0-8.94-1.85c-3-.15-5.89-.25-8.66-1.52a10.87,10.87,0,0,1-3.5-2.4c-.69-.73-1.14-12.79-.37-18.13a37.05,37.05,0,0,0-1.44-15.61c-.75-2.61-.35-5.58-1.21-8.16a2.77,2.77,0,0,0-.73-1.42,15.34,15.34,0,0,0-1.36-.91c-.89-.61-3-.88-3.74-1.69-3.22-3.68-3.71-8.84-3.73-13.52,0-5.54.26-11.07.07-16.62A134.78,134.78,0,0,0,9,112.69c-.86-5.53-2.45-10.88-3.62-16.35a77.42,77.42,0,0,1-1.64-15A89.12,89.12,0,0,1,5.11,64.21c.11-.64.63-2.33.72-2.61a97.8,97.8,0,0,1,4.84-12.8c-.21,1.94-.3,3.91-.41,5.85a117.47,117.47,0,0,0,0,14.29,48.73,48.73,0,0,0,2.13,12.53,55.38,55.38,0,0,0,7.3,13.89,67.08,67.08,0,0,0,12,13.13,1.79,1.79,0,0,0,.34.22q-1.51,5.85-2.72,11.77a158,158,0,0,0-2.73,16.73A34.4,34.4,0,0,0,28,151.5a35.76,35.76,0,0,0,6.62,11.57,34.09,34.09,0,0,0,10.44,8.51c2.53,1.24,4.56.36,6.41-1.54a34,34,0,0,0,4.22-5.35,62.87,62.87,0,0,0,6-12.75c1.82-5,3.34-10.08,5.32-15,.5-1.26,1-2.5,1.53-3.76A68.28,68.28,0,0,0,76.39,133.56ZM152.53,89.2c-1.45,1.71-3.28,3.06-4.71,4.77a18.55,18.55,0,0,0-3.86,9c-.49,3.25-.27,6.59-.82,9.83-.42,2.47-1.7,6.65-5,5.57a17.81,17.81,0,0,1-4-2.34,21.56,21.56,0,0,0-4.32-2.36,16.38,16.38,0,0,0-10.49,0,34.56,34.56,0,0,1-10.49,1.58A45.64,45.64,0,0,1,97,113.41q-2.82-.81-5.55-1.88a10.09,10.09,0,0,1-3.85-2,17.88,17.88,0,0,0-.08-5.4,10.77,10.77,0,0,0-.95-3.29,7.83,7.83,0,0,0,1-.51,8.13,8.13,0,0,0,1.1-.83l.32-.32c1.95,1.47,4.92,2.35,6.59.39,2.08-2.44,0-7-1.63-9.13a7.83,7.83,0,0,0-6.48-3.25,1.85,1.85,0,0,1-.33-.21,4.91,4.91,0,0,0-.63-.57q-.81-.54-1.59-1.14a11.74,11.74,0,0,0-3.6-1.9,1.17,1.17,0,0,0-1.23,1.81c-.32-.12-.64-.24-1-.38a1.16,1.16,0,0,0-1.07.12c-1-.31-2-.6-3-1a1.52,1.52,0,0,0-1.87.9A1,1,0,0,0,72,84.39a49,49,0,0,1-.26-6.18,46.89,46.89,0,0,1,3-14.81A44.77,44.77,0,0,1,94.17,40.22a52,52,0,0,1,28.89-6.76,1,1,0,0,0,.17,0,28.38,28.38,0,0,1,10.4,2.58A12.3,12.3,0,0,1,135.84,39a.69.69,0,0,0,1.28-.35v-.06a4.59,4.59,0,0,1,1.19,2.52.63.63,0,0,0,.93.54c.14-.07.53-.43.68-.43.31,0,.53,1.27.53,1.68s0,1-.07,1.5a6.55,6.55,0,0,0,.14,2.81c.1.37.29,1,.67,1.19l.19.19c.11.11.26,0,.28-.12s0-.11,0-.16l0,0,.06-.08a.78.78,0,0,0,.06-.37c0-.22,0-.43,0-.66a.8.8,0,0,0,.41-.15l.39-.27a1.58,1.58,0,0,0,.27.31,1.87,1.87,0,0,0,1,.44,2.43,2.43,0,0,0,.76,0l.24-.06a.83.83,0,0,0,.92.66c.88-.12,1,1.85,1.4,2.45A4.63,4.63,0,0,0,149.34,52a8.59,8.59,0,0,1,2.16,1.69c.45.45.94,1,1.61.89a58.34,58.34,0,0,1,2.6,11.14,66.84,66.84,0,0,1,.68,10.58c0,1.82-.14,3.64-.33,5.44-.08.71-.38,1.69-.5,2.61-.27.47-.52,1-.79,1.42A25.48,25.48,0,0,1,152.53,89.2ZM85.34,87.31h0l0,0Zm54-47.22,0,0h0ZM180.4,177.65a23,23,0,0,1-1.42-4,18.2,18.2,0,0,1-.39-8.55,13.26,13.26,0,0,1,3.1-6.09c1.34-1.46,3.28-2.39,4.56-3.89a.33.33,0,0,0,.25-.26.13.13,0,0,0,0-.06l.05-.06a.29.29,0,0,0,0-.32,27.23,27.23,0,0,0,.11-7.16c-.18-2.46-.42-4.92-.83-7.35a126.59,126.59,0,0,0-3.53-15,131.64,131.64,0,0,0-12.23-28.17c-.72-1.27-1.47-2.52-2.24-3.75s-1.35-2.58-2.17-3.78c-1.62-2.37-3.39-5.13-5.6-7a2.94,2.94,0,0,0-1.14-.61,56.52,56.52,0,0,0,.11-14.12c-.66-5.78-1.51-11.66-3.67-17.1a29.63,29.63,0,0,0-10.49-13.51c-4.72-3.32-10.61-5-16.23-5.93a53.14,53.14,0,0,0-32.29,4.67A48.72,48.72,0,0,0,73.66,58.87a49.78,49.78,0,0,0-4.42,17.45,46.31,46.31,0,0,0,.3,9,30.78,30.78,0,0,0,2.37,8,78.9,78.9,0,0,0-10.58,8.43,118.12,118.12,0,0,0-13.58,15C43.88,122,40.28,127.7,38.83,134c-.4,1.77,2.32,2.52,2.71.75,1.05-4.72,3.43-9,6-13.11a86.28,86.28,0,0,1,10.77-13.83A102.87,102.87,0,0,1,70.9,96.49a40.66,40.66,0,0,1,13.51-7.07c2.08-.57,4.37-.81,6.26.45a8.65,8.65,0,0,1,3.09,4.38c.42,1.18,1.34,3.92-.5,4.32-1.31.28-2.68-.57-3.86-1.29a1,1,0,0,0-.3-.42.86.86,0,0,0-.8-.16h0c-.7,0-1.22.63-1.74,1.08a5.88,5.88,0,0,1-1.06.62l-.09,0a2.36,2.36,0,0,0-.75.43l.26-.2-.42.29a1.1,1.1,0,0,0-.52,1.08,1.07,1.07,0,0,0,.78.9l.17,0a17.5,17.5,0,0,0,.08,2.5,23.27,23.27,0,0,1,0,4.72c0,.23-.08.44-.13.66a1.34,1.34,0,0,0-.28,1.11A10.92,10.92,0,0,1,81,115.13a15.82,15.82,0,0,1-7.11,3.27c-1.82.37-6.52.68-7.64-.27s-3,.27-2.13,1.65c.75,1.16,3,6.37,2.71,7.58a56.66,56.66,0,0,1-2.68,7.2c-1.67,4.1-3,8.31-4.42,12.51A89.93,89.93,0,0,1,55,159.15a42,42,0,0,1-3.25,5.48c-.6.84-1.22,1.65-1.9,2.43s-1.43,1.92-2.41,2.08-2.22-.7-3.05-1.14a25.73,25.73,0,0,1-2.67-1.71,28,28,0,0,1-4.59-4.17,32.5,32.5,0,0,1-6.28-10.63A33.73,33.73,0,0,1,29,138.43a112.57,112.57,0,0,1,2.32-15.91q1.68-8.53,4-16.91,1.19-4.24,2.52-8.44c.92-2.87,2-5.69,2.81-8.59.32-1.16-1.47-2-2-.85-2.32,5.11-3.81,10.71-5.33,16.09-.15.55-.3,1.09-.44,1.64a58.09,58.09,0,0,1-17-23.73C12.75,73.63,13,64.49,13.07,56c0-2.51.14-5,.23-7.54,0-1.08,0-2.17,0-3.25a5.81,5.81,0,0,0-.19-1.26,97.85,97.85,0,0,1,9-14C29,20.85,37.78,13.15,48.6,9.07c11.69-4.4,24.5-5.62,36.92-5a100.89,100.89,0,0,1,20.09,2.75,84.57,84.57,0,0,1,18.1,7.26,99,99,0,0,1,16.47,10.6,122.51,122.51,0,0,1,13.41,13,190.45,190.45,0,0,1,22.49,30.26,210.77,210.77,0,0,1,16.42,33.83,119.23,119.23,0,0,1,6.58,27,131.61,131.61,0,0,1,1,15.37c0,2.63.28,5.26.22,7.9s-.28,5.37-.54,8c-.49,5.08-1.21,10.16-2.17,15.17a64.37,64.37,0,0,1-3.75,13c-.43,1-.89,2-1.37,3-1.19-1.89-2.35-3.8-3.52-5.71a40.14,40.14,0,0,0-2.59-4.22,4.77,4.77,0,0,0-2.1-1,2.35,2.35,0,0,0-.81-.52,4.14,4.14,0,0,0-1.35-.17A3.87,3.87,0,0,1,180.4,177.65Zm2.45,6.4c-.08.18-.15.36-.23.55a5.26,5.26,0,0,0-.71-.62A3.24,3.24,0,0,0,182.85,184.05Zm-11.67,37.48-.46-.06a4.21,4.21,0,0,0,2.12-1,4.47,4.47,0,0,0,.71,1.32Zm6,.77a3.41,3.41,0,0,0,.8-1.38,12.31,12.31,0,0,0,2.26,1.75Zm22.49,0a20.41,20.41,0,0,1-2.79-3.21c-.75-1.08-2.77-.46-2.27,1l.09.24c-.62-.38-1.24-.75-1.85-1.14a.63.63,0,0,0-.76,1c.68.67,1.35,1.36,2,2l-.62-.38a44.79,44.79,0,0,1-4.07-2.9,11.83,11.83,0,0,0-3.87-2.49.11.11,0,0,0-.13.13c.46,1.87,2.2,3.4,3.9,4.66a7.69,7.69,0,0,0-.83,0,2.57,2.57,0,0,1-1.29-.21,16.86,16.86,0,0,1-5.68-3.22,1.49,1.49,0,0,0-2.25.54,28.85,28.85,0,0,1-3.05-4.23,1.33,1.33,0,0,0-1.78-.52c-.8-.54-2,.22-2.14,1.21-.23,1.84-1.34,4.56-3.44,5.11a.78.78,0,0,0-.29,1.34c-3.6-.45-7.21-.87-10.83-1.1l-1.23-.08a44.15,44.15,0,0,0,9.1-6,54.85,54.85,0,0,0,8.53-9.16h0a1.28,1.28,0,0,0,.91-1.29,79.92,79.92,0,0,0,5.09-8.28.75.75,0,0,0,.07-.12l.29-.53c.88-1.68,1.69-3.39,2.47-5.11a1.23,1.23,0,0,0,.83.07,1.29,1.29,0,0,0,.89-1.56,12,12,0,0,0-.53-1.15c.44-1,.87-1.95,1.26-2.94.35.64.72,1.26,1.06,1.87,1.16,2.1,2.39,4.15,3.65,6.18.35.56.72,1.1,1.07,1.65a2.22,2.22,0,0,0,1.86,2.88c1.61,2.43,3.24,4.84,4.95,7.2l.85,1.19a1.05,1.05,0,0,0-1.24,1.28,68.74,68.74,0,0,0,2.4,10,1.15,1.15,0,0,0-1.07,1.52c.37,1.42.76,2.83,1.14,4.25A3.37,3.37,0,0,0,199.69,222.3Zm.55-15.57,1.15,1.55a1.51,1.51,0,0,0-.41.13ZM442.87,252.5c-8.45-.09-16.89-.59-25.32-.88s-17.09-.67-25.63-.88q-25.57-.63-51.15-.68c-8.4,0-16.8,0-25.2.2-8.08.22-16.17.28-24.26.23-4.64,0-9.4,0-13.95-1-3.1-.72-6-2.26-9.13-2.82-2.06-1.06-4.07-2.21-6.05-3.39-6.47-3.88-12.76-8.07-19.3-11.84A114.59,114.59,0,0,0,232.49,226c-3.71-1.64-7.58-2.84-11.36-4.32a31.84,31.84,0,0,1-11.1-7.11,88.31,88.31,0,0,1-8.37-10.05c-.66-.88-1.31-1.76-1.95-2.65a45.32,45.32,0,0,0,6.7.41c2.72.07,5.44.16,8.16.19l16,.12c10.76.08,21.52.34,32.26,1q5.5.38,11,.89c-.77,0-1.53.09-2.3.11-2.79.07-5.57,0-8.34.32a.78.78,0,0,0-.21,1.52c4.58,1.41,9.73,1,14.44.54s9.66-1.15,14.52-1.44c9.81-.57,19.67-.45,29.5-.39,2.8,0,5.59.06,8.39.11a73.56,73.56,0,0,0,8.4,0,.56.56,0,0,0,.43-.31c.92.57,1.81,1.17,2.78,1.65q2.22,1.08,4.47,2.1,4.19,1.86,8.4,3.66c5.47,2.33,10.91,4.84,16.53,6.81s11.38,2.89,17.19,3.87A104.51,104.51,0,0,1,404.34,227c20.16,6.88,38,19.66,59,24.33,1.41.31,2.82.58,4.23.83C459.3,252.38,451.09,252.59,442.87,252.5Z"/></g></g></g></svg>