<?xml version="1.0" encoding="UTF-8"?>
<svg width="554px" height="105px" viewBox="0 0 554 105" version="1.1" xmlns="http://www.w3.org/2000/svg" xmlns:xlink="http://www.w3.org/1999/xlink">
    <!-- Generator: Sketch 55.1 (78136) - https://sketchapp.com -->
    <title>spacing copy 9</title>
    <desc>Created with Sketch.</desc>
    <g id="spacing-copy-9" stroke="none" stroke-width="1" fill="none" fill-rule="evenodd">
        <g id="Group" fill-rule="nonzero">
            <polygon id="Rectangle-84-path" fill="#F53E31" points="90 90 90 45 60 45 60 30 90 30 90 0 105 0 105 97.5 105 105 60 105 60 90"></polygon>
            <polygon id="Rectangle-84-path" fill="#5A6BCC" points="465 30 465 0 450 0 450 30 435 30 435 45 450 45 450 90 465 90 465 45 480 45 480 30"></polygon>
            <polygon id="Rectangle-84-path" fill="#48A34C" points="345 37.5 345 30 315 30 315 45 330 45 330 105 345 105"></polygon>
            <polygon id="Rectangle-84-path" fill="#F53E31" points="30 37.5 30 30 0 30 0 45 15 45 15 105 30 105"></polygon>
            <polygon id="Rectangle-84-path" fill="#F5C60A" points="240 90 240 75 210 75 210 60 240 60 240 45 255 45 255 97.5 255 105 210 105 210 90"></polygon>
            <polygon id="Rectangle-84-path" fill="#A433B8" points="539 90 539 75 509 75 509 60 539 60 539 45 554 45 554 97.5 554 105 509 105 509 90"></polygon>
            <polygon id="Rectangle-84-path" fill="#FF961F" points="172.5 75 135 75 135 90 120 90 120 45 135 45 135 60 165 60 165 45 180 45 180 75"></polygon>
            <polygon id="Rectangle-84-path" fill="#48A34C" points="300 7.5 300 0 270 0 270 15 285 15 285 105 300 105"></polygon>
            <polygon id="Rectangle-84-path" fill="#5A6BCC" points="375 30 420 30 420 45 375 45"></polygon>
            <polygon id="Rectangle-84-path" fill="#5A6BCC" points="360 45 375 45 375 60 360 60"></polygon>
            <polygon id="Rectangle-84-path" fill="#5A6BCC" points="375 60 405 60 405 75 375 75"></polygon>
            <polygon id="Rectangle-84-path" fill="#5A6BCC" points="405 75 420 75 420 90 405 90"></polygon>
            <polygon id="Rectangle-84-path" fill="#5A6BCC" points="360 90 405 90 405 105 360 105"></polygon>
            <polygon id="Rectangle-84-path" fill="#FF961F" points="135 90 165 90 165 105 135 105"></polygon>
            <polygon id="Rectangle-84-path" fill="#FF961F" points="135 30 165 30 165 45 135 45"></polygon>
            <polygon id="Rectangle-84-path" fill="#A433B8" points="509 30 539 30 539 45 509 45"></polygon>
            <polygon id="Rectangle-84-path" fill="#A433B8" points="494 75 509 75 509 90 494 90"></polygon>
            <polygon id="Rectangle-84-path" fill="#F5C60A" points="210 30 240 30 240 45 210 45"></polygon>
            <polygon id="Rectangle-84-path" fill="#F5C60A" points="195 75 210 75 210 90 195 90"></polygon>
            <polygon id="Rectangle-84-path" fill="#F53E31" points="15 0 30 0 30 15 15 15"></polygon>
            <polygon id="Rectangle-84-path" fill="#48A34C" points="330 0 345 0 345 15 330 15"></polygon>
            <polygon id="Rectangle-84-path" fill="#5A6BCC" points="465 90 480 90 480 105 465 105"></polygon>
            <polygon id="Rectangle-84-path" fill="#F53E31" points="45 45 60 45 60 90 45 90"></polygon>
        </g>
    </g>
</svg>